<?xml version="1.0" standalone="no"?>
<!DOCTYPE svg PUBLIC "-//W3C//DTD SVG 20010904//EN" "http://www.w3.org/TR/2001/REC-SVG-20010904/DTD/svg10.dtd">
<svg version="1.0" xmlns="http://www.w3.org/2000/svg" viewBox="0 0 512 512" preserveAspectRatio="xMidYMid meet">

  <g transform="translate(0.000000,512.000000) scale(0.100000,-0.100000)" fill="#333333" stroke="none">
    <path d="M2325 5110 c-44 -5 -91 -12 -105 -15 -14 -3 -45 -10 -70 -14 -168 -30 -355 -81 -465 -126 -16 -7 -41 -16 -55 -20 -14 -4 -71 -29 -126 -55 -56 -27 -114 -52 -129 -56 -15 -4 -29 -13 -32 -20 -3 -8 -9 -14 -13 -14 -7 0 -107 -58 -203 -117 -60 -38 -235 -178 -307 -247 -143 -137 -296 -311 -330 -376 -7 -14 -19 -29 -26 -33 -7 -4 -22 -27 -34 -50 -11 -23 -33 -62 -50 -87 -16 -25 -48 -83 -70 -130 -22 -47 -53 -110 -69 -140 -16 -30 -36 -80 -45 -110 -10 -30 -24 -75 -33 -100 -38 -111 -52 -161 -68 -245 -45 -226 -55 -355 -50 -603 6 -258 10 -318 30 -437 40 -232 48 -267 95 -395 17 -47 38 -105 46 -129 33 -102 205 -429 259 -491 12 -14 37 -47 55 -75 19 -27 40 -54 47 -58 7 -4 19 -20 27 -35 31 -58 290 -308 401 -385 127 -90 225 -152 295 -189 41 -22 81 -45 88 -51 15 -12 101 -49 179 -77 28 -10 62 -25 75 -33 12 -8 48 -20 78 -27 30 -7 66 -18 80 -26 14 -7 55 -18 90 -24 36 -6 79 -18 95 -25 39 -17 172 -43 260 -51 39 -4 76 -12 84 -18 21 -16 758 -15 787 1 11 7 69 17 127 23 59 6 137 20 175 32 37 11 101 29 142 39 121 28 223 59 246 74 11 7 68 32 126 54 58 23 112 48 118 57 7 8 41 28 76 44 35 17 76 41 91 54 15 13 53 39 83 59 128 82 386 372 415 467 4 14 16 36 25 50 27 38 58 132 80 240 11 52 24 115 30 140 20 95 23 185 7 241 -9 30 -21 86 -27 124 -5 39 -19 99 -31 135 l-20 66 36 69 c19 39 39 77 44 85 23 38 61 129 71 170 7 25 19 56 27 69 33 51 87 322 100 496 3 39 9 74 14 80 12 13 11 202 -1 210 -5 3 -10 25 -10 48 0 104 -64 447 -95 512 -8 17 -30 75 -50 130 -21 55 -44 111 -53 125 -9 14 -36 63 -60 110 -25 47 -50 89 -57 95 -7 5 -29 36 -49 69 -66 104 -193 245 -331 366 -35 31 -75 62 -165 127 -76 55 -231 147 -294 174 -39 17 -84 39 -101 49 -16 10 -86 37 -155 60 -68 23 -133 46 -143 51 -16 9 -103 28 -372 80 -66 13 -708 20 -810 9z m642 -330 c26 -5 96 -17 155 -25 103 -14 233 -46 270 -66 10 -5 24 -9 32 -9 23 0 259 -91 277 -107 9 -8 41 -23 70 -34 30 -11 63 -28 74 -38 11 -9 52 -37 90 -62 102 -64 210 -152 288 -233 128 -133 137 -142 137 -150 0 -8 60 -87 73 -97 8 -6 47 -72 75 -129 9 -19 19 -37 22 -40 18 -17 41 -67 70 -150 18 -52 36 -99 40 -105 17 -25 51 -160 67 -265 24 -152 24 -386 0 -540 -19 -117 -64 -268 -119 -396 -27 -63 -32 -70 -47 -58 -9 7 -41 33 -71 59 -90 75 -220 144 -294 155 -28 4 -76 19 -107 33 -69 32 -289 62 -394 53 -92 -7 -227 -30 -243 -40 -8 -4 -41 -15 -75 -22 -62 -15 -168 -53 -177 -65 -3 -4 -24 -16 -48 -28 -115 -58 -267 -188 -346 -294 l-28 -38 -31 43 c-70 97 -251 252 -318 273 -13 4 -42 17 -64 29 -22 12 -76 33 -120 47 -76 23 -94 24 -325 24 -277 0 -282 -1 -320 -75 -44 -87 -15 -202 61 -240 37 -19 51 -21 167 -15 133 7 246 -3 324 -30 126 -42 282 -165 329 -257 12 -24 29 -52 39 -63 10 -11 27 -49 38 -85 15 -50 28 -72 57 -95 36 -30 38 -30 159 -30 121 0 123 0 159 30 19 17 36 33 36 38 1 4 10 29 22 55 53 121 40 100 132 213 51 63 140 139 162 139 7 0 27 11 44 25 60 51 306 115 440 115 84 0 229 -26 307 -56 98 -37 148 -69 232 -150 l74 -72 -17 -32 c-9 -17 -22 -33 -30 -36 -8 -3 -28 -28 -46 -55 -17 -27 -36 -49 -41 -49 -5 0 -33 -24 -62 -54 -29 -30 -73 -69 -98 -89 -25 -19 -59 -46 -74 -61 -16 -15 -53 -40 -81 -57 -29 -17 -55 -35 -59 -40 -3 -5 -36 -24 -72 -41 -37 -17 -78 -39 -92 -48 -26 -18 -168 -80 -183 -80 -4 0 -36 -13 -70 -29 -34 -16 -89 -34 -122 -41 -33 -6 -82 -18 -110 -25 -27 -8 -97 -19 -155 -25 -58 -6 -157 -18 -221 -26 -104 -14 -126 -14 -230 0 -63 8 -161 20 -219 26 -58 6 -127 18 -155 25 -27 8 -78 22 -112 31 -35 9 -63 20 -63 25 0 4 -16 13 -37 20 -106 35 -241 111 -351 198 -43 33 -192 183 -192 192 0 4 -18 26 -39 49 -22 24 -54 68 -71 99 -17 31 -35 63 -40 71 -26 42 -89 210 -90 239 0 8 -9 34 -20 57 -16 32 -23 75 -30 200 -12 194 1 359 37 494 33 125 93 301 108 320 6 8 18 31 25 50 15 40 67 138 86 160 6 8 21 31 32 50 46 82 57 100 63 100 14 0 258 -248 273 -277 8 -17 26 -40 39 -50 12 -10 38 -40 56 -66 18 -26 45 -61 59 -77 15 -16 35 -41 46 -55 26 -38 99 -68 150 -63 23 3 73 19 111 37 39 18 93 43 120 56 162 74 418 92 608 42 54 -14 104 -30 110 -35 7 -5 44 -22 82 -37 39 -15 91 -38 117 -51 26 -13 54 -24 61 -24 30 0 138 63 159 93 47 68 289 324 415 440 l31 29 16 -29 c14 -25 42 -85 66 -138 28 -62 79 -208 89 -255 27 -119 54 -189 88 -222 29 -28 41 -33 97 -36 118 -8 176 43 176 153 0 94 -39 270 -80 360 -10 23 -28 74 -41 115 -26 86 -119 272 -158 315 -15 17 -40 47 -55 69 -31 41 -112 86 -157 86 -31 0 -143 -54 -190 -92 -19 -15 -63 -50 -97 -77 -92 -72 -183 -161 -361 -354 -48 -53 -61 -55 -146 -17 -58 26 -75 30 -183 46 -170 26 -300 34 -381 24 -232 -29 -289 -40 -379 -76 -67 -27 -99 -25 -110 6 -10 26 -177 213 -265 295 -86 81 -120 110 -179 154 -162 120 -220 141 -291 105 -44 -22 -133 -118 -140 -152 -3 -15 -28 -57 -54 -94 -60 -83 -130 -205 -158 -273 -11 -29 -27 -63 -36 -76 -18 -29 -60 -139 -87 -229 -11 -36 -30 -90 -42 -120 -23 -57 -38 -121 -66 -275 -23 -127 -15 -417 15 -570 12 -60 26 -119 30 -130 5 -11 15 -36 23 -55 9 -19 19 -51 23 -70 4 -19 18 -58 31 -87 13 -28 24 -56 24 -61 0 -5 6 -15 14 -21 8 -7 25 -35 39 -64 13 -29 40 -73 59 -98 19 -25 51 -70 70 -101 20 -30 57 -70 82 -88 25 -19 46 -37 46 -40 0 -4 28 -35 63 -68 198 -192 517 -356 814 -418 70 -14 148 -31 173 -37 59 -14 680 -14 740 0 25 6 115 25 200 43 85 18 175 40 200 50 187 74 258 105 280 120 36 25 147 80 163 80 7 0 46 20 86 45 40 25 76 45 80 45 8 0 116 81 171 129 19 17 55 47 80 67 25 19 70 61 101 93 l57 56 5 -55 c4 -31 4 -74 1 -96 -7 -50 -54 -226 -64 -239 -5 -5 -31 -50 -60 -99 -60 -105 -129 -188 -221 -265 -106 -89 -120 -99 -189 -138 -36 -20 -67 -39 -70 -43 -9 -12 -201 -100 -218 -100 -6 0 -27 -9 -46 -21 -36 -21 -79 -34 -306 -89 -195 -48 -200 -49 -295 -57 -131 -12 -618 -8 -700 5 -158 25 -492 113 -543 143 -18 10 -38 19 -44 19 -21 0 -217 91 -269 125 -29 19 -57 35 -62 35 -14 0 -212 138 -258 180 -24 22 -47 40 -51 40 -16 0 -222 217 -283 298 -21 28 -43 52 -47 52 -4 0 -8 5 -8 10 0 6 -16 33 -35 60 -19 27 -35 54 -35 58 0 5 -8 17 -19 26 -10 9 -31 44 -46 77 -14 32 -42 87 -62 122 -37 65 -117 293 -153 437 -12 46 -29 134 -38 195 -19 136 -27 457 -13 545 6 36 18 112 27 170 18 121 45 219 113 412 28 82 106 236 170 338 22 36 48 79 57 95 9 17 37 53 60 81 24 28 44 55 44 61 0 13 234 247 311 311 132 109 311 225 444 286 33 15 76 36 96 46 34 18 274 100 393 134 32 10 108 24 170 31 61 8 131 19 156 24 62 12 487 13 547 1z"/>
  </g>
</svg>
